# xmcd
#
# Track frame offsets: 
#        150
#        16170
#        33810
#        50515
#        63468
#        82573
#        102120
#        118833
#        135365
#        147435
#        162053
#        175820
#
# Disc length: 2602 seconds
#
# Revision: 3
# Processed by: cddbd v1.5.2PL0 Copyright (c) Steve Scherf et al.
# Submitted via: ExactAudioCopy v0.99pb5
#
DISCID=8c0a280c,aa0a1e0c
DTITLE=Kenny Rogers - Kenny Rogers' Greatest Hits
DYEAR=1980
DGENRE=Country
TTITLE0=The Gambler
TTITLE1=Lady
TTITLE2=Don't Fall In Love With A Dreamer
TTITLE3=Ruby Don't Take Your Love To Town
TTITLE4=She Believes In Me
TTITLE5=Coward Of The County
TTITLE6=Lucille
TTITLE7=You Decorated My Life
TTITLE8=Reuben James
TTITLE9=Love The World Away
TTITLE10=Every Time Two Fools Collide
TTITLE11=Long Arm Of The Law
EXTD=YEAR: 1979
EXTT0=
EXTT1=
EXTT2=
EXTT3=
EXTT4=
EXTT5=
EXTT6=
EXTT7=
EXTT8=
EXTT9=
EXTT10=
EXTT11=
PLAYORDER=
